<?xml version="1.0" encoding="UTF-8" standalone="no"?>
<svg
   version="1.1"
   id="Layer_1"
   x="0px"
   y="0px"
   viewBox="0 0 711.08614 492.58753"
   xml:space="preserve"
   sodipodi:docname="fevrdock.svg"
   width="711.08612"
   height="492.58752"
   inkscape:version="1.1.2 (0a00cf5339, 2022-02-04)"
   xmlns:inkscape="http://www.inkscape.org/namespaces/inkscape"
   xmlns:sodipodi="http://sodipodi.sourceforge.net/DTD/sodipodi-0.dtd"
   xmlns="http://www.w3.org/2000/svg"
   xmlns:svg="http://www.w3.org/2000/svg"><defs
     id="defs177448"><filter
       style="color-interpolation-filters:sRGB"
       inkscape:label="Drop Shadow"
       id="filter161130-6-0"
       x="-0.023293404"
       y="-0.019275073"
       width="1.1006552"
       height="1.0833356"><feFlood
         flood-opacity="0.74902"
         flood-color="rgb(0,0,0)"
         result="flood"
         id="feFlood161120-1-2" /><feComposite
         in="flood"
         in2="SourceGraphic"
         operator="in"
         result="composite1"
         id="feComposite161122-8-3" /><feGaussianBlur
         in="composite1"
         stdDeviation="3"
         result="blur"
         id="feGaussianBlur161124-7-7" /><feOffset
         dx="20"
         dy="20"
         result="offset"
         id="feOffset161126-9-5" /><feComposite
         in="SourceGraphic"
         in2="offset"
         operator="over"
         result="composite2"
         id="feComposite161128-2-9" /></filter></defs><sodipodi:namedview
     id="namedview177446"
     pagecolor="#ffffff"
     bordercolor="#666666"
     borderopacity="1.0"
     inkscape:pageshadow="2"
     inkscape:pageopacity="0.0"
     inkscape:pagecheckerboard="0"
     showgrid="false"
     inkscape:zoom="0.89316096"
     inkscape:cx="293.34018"
     inkscape:cy="166.82323"
     inkscape:window-width="1920"
     inkscape:window-height="1051"
     inkscape:window-x="0"
     inkscape:window-y="0"
     inkscape:window-maximized="1"
     inkscape:current-layer="layer18" /><style
     type="text/css"
     id="style177439">.st0{fill:#0091E2;}</style><g
     inkscape:groupmode="layer"
     id="layer17"
     inkscape:label="fEVR"
     transform="translate(218.41444,194.58777)" /><g
     inkscape:groupmode="layer"
     id="layer18"
     inkscape:label="docker"
     transform="translate(218.41444,194.58777)"><g
       id="g177443"
       transform="matrix(3.5528374,0,0,3.5528374,-164.52714,-174.56036)"><path
         class="st0"
         d="m 181.90547,50.107144 c -0.50723,-0.417717 -5.10212,-3.908645 -14.96325,-3.908645 -2.55106,0 -5.19163,0.253615 -7.7427,0.686251 -1.86481,-13.008927 -12.6658,-19.304531 -13.09843,-19.632738 l -2.64058,-1.536604 -1.70071,2.461551 c -2.11842,3.311906 -3.74454,7.056447 -4.66948,10.875582 -1.79022,7.399573 -0.68626,14.366509 3.05829,20.318988 -4.50539,2.551062 -11.81545,3.147802 -13.35206,3.237313 H 6.0611868 c -3.1478022,0 -5.69886457,2.551062 -5.69886457,5.698865 C 0.1982188,78.855081 1.9735195,89.387538 5.6285504,99.338173 9.7908101,110.21375 15.996903,118.29958 23.993216,123.22268 c 9.01077,5.51984 23.720405,8.66765 40.294851,8.66765 7.474165,0 14.963249,-0.68625 22.362822,-2.04384 10.29376,-1.86481 20.154881,-5.44525 29.240251,-10.62197 7.48908,-4.34128 14.2024,-9.86112 19.90127,-16.32083 9.60751,-10.800986 15.30637,-22.870048 19.46863,-33.581526 0.59674,0 1.10397,0 1.70071,0 10.45786,0 16.91757,-4.16226 20.48309,-7.742698 2.38696,-2.207937 4.16226,-4.938021 5.44525,-7.996313 l 0.76084,-2.207937 z m -74.72673,9.010771 h 16.15672 c 0.76085,0 1.4471,-0.59674 1.4471,-1.447094 V 43.2148 c 0,-0.760843 -0.59674,-1.447093 -1.4471,-1.447093 v 0 h -16.15672 c -0.76085,0 -1.4471,0.596739 -1.4471,1.447093 v 0 14.456021 c 0.0895,0.850354 0.68625,1.447094 1.4471,1.447094 z M 84.651811,17.719095 h 16.156729 c 0.76084,0 1.44709,-0.59674 1.44709,-1.447094 V 1.8159809 c 0,-0.7608432 -0.68625,-1.44709389 -1.44709,-1.44709389 H 84.651811 c -0.760844,0 -1.447094,0.59673975 -1.447094,1.44709389 v 0 14.4560201 c 0,0.760843 0.671332,1.447094 1.447094,1.447094 z m 0,20.736706 h 16.156729 c 0.76084,0 1.44709,-0.686251 1.44709,-1.447094 v -14.45602 c 0,-0.760843 -0.68625,-1.447094 -1.44709,-1.447094 H 84.651811 c -0.760844,0 -1.447094,0.59674 -1.447094,1.447094 v 0 14.45602 c 0,0.775762 0.671332,1.447094 1.447094,1.447094 z m -22.362822,0 h 16.156728 c 0.760844,0 1.447094,-0.686251 1.447094,-1.447094 v -14.45602 c 0,-0.760843 -0.59674,-1.447094 -1.447094,-1.447094 v 0 H 62.288989 c -0.760843,0 -1.447094,0.59674 -1.447094,1.447094 v 0 14.45602 c 0,0.775762 0.59674,1.447094 1.447094,1.447094 z m -22.705947,0 H 55.73977 c 0.760843,0 1.447094,-0.686251 1.447094,-1.447094 v -14.45602 c 0,-0.760843 -0.59674,-1.447094 -1.447094,-1.447094 v 0 H 39.583042 c -0.760843,0 -1.447094,0.59674 -1.447094,1.447094 v 14.45602 c 0.08951,0.775762 0.686251,1.447094 1.447094,1.447094 z m 45.068769,20.662114 h 16.156729 c 0.76084,0 1.44709,-0.59674 1.44709,-1.447094 V 43.2148 c 0,-0.760843 -0.59674,-1.447093 -1.44709,-1.447093 v 0 H 84.651811 c -0.760844,0 -1.447094,0.596739 -1.447094,1.447093 v 0 14.456021 c 0,0.850354 0.671332,1.447094 1.447094,1.447094 z m -22.362822,0 h 16.156728 c 0.760844,0 1.447094,-0.59674 1.447094,-1.447094 v 0 V 43.2148 c 0,-0.760843 -0.59674,-1.447093 -1.447094,-1.447093 v 0 H 62.288989 c -0.760843,0 -1.447094,0.596739 -1.447094,1.447093 v 0 14.456021 c 0,0.850354 0.59674,1.447094 1.447094,1.447094 z m -22.705947,0 H 55.73977 c 0.760843,0 1.447094,-0.59674 1.447094,-1.447094 v 0 V 43.2148 c 0,-0.760843 -0.59674,-1.447093 -1.447094,-1.447093 v 0 H 39.583042 c -0.760843,0 -1.447094,0.596739 -1.447094,1.447093 v 14.456021 c 0.08951,0.850354 0.686251,1.447094 1.447094,1.447094 z m -22.273311,0 h 16.156728 c 0.760844,0 1.447094,-0.59674 1.447094,-1.447094 v 0 V 43.2148 c 0,-0.760843 -0.59674,-1.447093 -1.447094,-1.447093 v 0 H 17.309731 c -0.760843,0 -1.447094,0.596739 -1.447094,1.447093 v 0 14.456021 c 0.08951,0.850354 0.686251,1.447094 1.447094,1.447094 z"
         id="path177441"
         style="fill:#f0ffff;fill-opacity:1;stroke:#003636;stroke-width:2.23777;stroke-miterlimit:4;stroke-dasharray:none;stroke-opacity:1" /></g><g
       id="g163407"
       transform="matrix(1.3333333,0,0,1.3333333,-215.50936,-189.02771)"
       style="display:inline"><g
         id="g144141"
         style="display:inline"
         transform="matrix(0.7104248,0,0,0.7104248,1188.4053,-61.726727)"><path
           d="m -1614.7419,512.5408 c 1.5286,12.89157 14.3309,21.65381 6.6877,23.66814 -7.6431,2.01427 -41.0821,-63.95436 -48.7253,-92.15475 -7.6431,-28.20034 -11.9424,-59.92576 -10.0317,-78.05455 1.9108,-18.12878 100.7946,-46.32912 100.7946,-53.88275 0,-7.55369 -32.0059,-0.50358 -33.4389,-6.54652 -1.4331,-6.04294 24.1715,-2.41718 31.0504,-12.08588 10.7483,-15.10732 24.3627,-12.58943 32.9612,-20.64667 8.5986,-8.05725 19.108,-38.77547 21.0188,-51.86852 1.9108,-13.09298 -19.1079,-28.20033 -24.8403,-38.27187 -5.7324,-10.07155 12.4201,-17.12166 56.3685,-36.25758 43.9483,-19.13596 183.4365,-61.436471 185.3473,-56.4007 1.9108,5.03577 -45.8591,26.18603 -79.2981,39.27905 -33.4389,13.09301 -87.8966,38.27191 -87.8966,45.32198 0,7.05008 2.8661,12.58943 0.9554,28.70392 -1.9109,16.11449 -2.1402,23.63895 -5.7325,34.24327 -2.3885,7.05008 -4.7769,23.66815 0,38.77547 3.8216,12.08588 16.2418,21.15029 21.9742,23.16459 4.777,0.33538 17.9615,0.80573 32.4836,0 18.1525,-1.00714 43.9483,1.00714 43.9483,6.04294 0,5.03574 -39.1713,2.0143 -39.1713,9.06438 0,7.05007 40.1267,-1.00714 39.1713,6.04294 -0.9554,7.05007 -33.439,4.0286 -50.6361,4.0286 -13.7578,0 -34.0762,-0.67179 -42.9929,-4.0286 l -1.9108,7.05007 c -3.1844,0 -9.8407,2.01431 -16.7195,2.01431 -8.5986,0 -9.0763,3.02147 -24.8404,3.02147 -15.7641,0 -10.987,-1.00717 -25.318,-2.01431 -14.331,-1.00716 -67.8333,42.30052 -77.3873,56.40064 -9.554,14.10018 -3.8216,48.34355 -3.8216,63.95445 0,14.02761 -1.9108,45.32196 0,61.43648 z"
           fill="#b1b9c6"
           id="path77"
           style="opacity:1;fill:#003636;fill-opacity:1;stroke:#f0ffff;stroke-width:2.81522;stroke-miterlimit:4;stroke-dasharray:none;stroke-opacity:1;filter:url(#filter161130-6-0)"
           class="themeUIElement"
           inkscape:label="path77" /><g
           aria-label="EVR"
           transform="matrix(2.8059564,0,0,2.6232796,-1651.1094,149.24465)"
           id="text40985"
           style="font-size:83.5021px;line-height:1.25;font-family:Roboto;-inkscape-font-specification:Roboto;white-space:pre;inline-size:690.468;opacity:1;fill:#003636;stroke-width:0"><path
             d="M 33.671804,140.2972 V 80.932423 H 70.97865 v 6.442056 H 41.540898 v 19.081531 h 25.686681 v 6.40129 H 41.540898 v 21.03861 h 29.845477 v 6.40129 z"
             id="path131157" /><path
             d="M 126.30695,80.932423 104.33056,140.2972 H 97.358464 L 75.422855,80.932423 h 8.521454 l 16.839051,48.927007 17.00213,-48.927007 z"
             id="path131159" /><path
             d="m 168.99577,140.2972 -12.88412,-24.05578 h -13.9442 v 24.05578 h -7.86909 V 80.932423 h 19.65235 q 9.98926,0 15.37124,4.566521 5.42274,4.566521 5.42274,13.251065 0,5.545061 -3.01717,9.703861 -2.97639,4.11802 -8.27682,6.15664 l 13.9442,25.19742 v 0.48927 z M 142.16745,87.374479 v 22.465651 h 12.02789 q 6.31974,0 9.5,-3.22103 3.22103,-3.2618 3.22103,-7.869091 0,-5.137336 -3.09871,-8.236047 -3.05794,-3.139483 -9.86695,-3.139483 z"
             id="path131161" /></g></g></g></g></svg>
