<?xml version="1.0" encoding="UTF-8" standalone="no"?>
<svg
   version="1.1"
   id="Layer_1"
   x="0px"
   y="0px"
   viewBox="0 0 711.08614 492.58753"
   xml:space="preserve"
   sodipodi:docname="fevrdock.svg"
   width="711.08612"
   height="492.58752"
   inkscape:version="1.1.2 (0a00cf5339, 2022-02-04)"
   xmlns:inkscape="http://www.inkscape.org/namespaces/inkscape"
   xmlns:sodipodi="http://sodipodi.sourceforge.net/DTD/sodipodi-0.dtd"
   xmlns="http://www.w3.org/2000/svg"
   xmlns:svg="http://www.w3.org/2000/svg"><defs
     id="defs177448"><filter
       style="color-interpolation-filters:sRGB"
       inkscape:label="Drop Shadow"
       id="filter161130-6-0"
       x="-0.023293404"
       y="-0.019275073"
       width="1.1006552"
       height="1.0833356"><feFlood
         flood-opacity="0.74902"
         flood-color="rgb(0,0,0)"
         result="flood"
         id="feFlood161120-1-2" /><feComposite
         in="flood"
         in2="SourceGraphic"
         operator="in"
         result="composite1"
         id="feComposite161122-8-3" /><feGaussianBlur
         in="composite1"
         stdDeviation="3"
         result="blur"
         id="feGaussianBlur161124-7-7" /><feOffset
         dx="20"
         dy="20"
         result="offset"
         id="feOffset161126-9-5" /><feComposite
         in="SourceGraphic"
         in2="offset"
         operator="over"
         result="composite2"
         id="feComposite161128-2-9" /></filter></defs><sodipodi:namedview
     id="namedview177446"
     pagecolor="#ffffff"
     bordercolor="#666666"
     borderopacity="1.0"
     inkscape:pageshadow="2"
     inkscape:pageopacity="0.0"
     inkscape:pagecheckerboard="0"
     showgrid="false"
     inkscape:zoom="0.89316096"
     inkscape:cx="293.34018"
     inkscape:cy="166.82323"
     inkscape:window-width="1920"
     inkscape:window-height="1051"
     inkscape:window-x="0"
     inkscape:window-y="0"
     inkscape:window-maximized="1"
     inkscape:current-layer="layer18" /><style
     type="text/css"
     id="style177439">.st0{fill:#0091E2;}</style><g
     inkscape:groupmode="layer"
     id="layer17"
     inkscape:label="fEVR"
     transform="translate(218.41444,194.58777)"
     style="display:none"><rect
       style="fill:#1a1a1a;fill-opacity:1;stroke:#003636;stroke-width:1.5;stroke-linejoin:round;stroke-miterlimit:4;stroke-dasharray:none;stroke-opacity:1"
       id="rect228484"
       width="811.81763"
       height="581.95569"
       x="-251.24208"
       y="-226.23576"
       ry="13.4933" /></g><g
     inkscape:groupmode="layer"
     id="layer18"
     inkscape:label="docker"
     transform="translate(218.41444,194.58777)"><g
       id="g163407"
       transform="matrix(1.3333333,0,0,1.3333333,-215.50936,-189.02771)"
       style="display:inline"><g
         id="g144141"
         style="display:inline"
         transform="matrix(0.7104248,0,0,0.7104248,1188.4053,-61.726727)"><text
           xml:space="preserve"
           style="font-size:168.913px;line-height:1.25;font-family:sans-serif;fill:#003636;fill-opacity:1;stroke-width:1.05571"
           x="-1667.3813"
           y="225.92223"
           id="text198810"><tspan
             sodipodi:role="line"
             id="tspan198808"
             style="font-size:168.913px;fill:#003636;fill-opacity:1;stroke-width:1.05571"
             x="-1667.3813"
             y="225.92223">Value</tspan></text><text
           xml:space="preserve"
           style="font-size:168.913px;line-height:1.25;font-family:sans-serif;display:inline;fill:#003636;fill-opacity:1;stroke-width:1.05571"
           x="-1560.3937"
           y="434.94547"
           id="text198810-2"><tspan
             sodipodi:role="line"
             id="tspan198808-8"
             style="font-size:168.913px;fill:#003636;fill-opacity:1;stroke-width:1.05571"
             x="-1560.3937"
             y="434.94547">Value</tspan></text><text
           xml:space="preserve"
           style="font-size:101.348px;line-height:1.25;font-family:sans-serif;fill:#003636;fill-opacity:1;stroke-width:1.05571"
           x="-1601.0106"
           y="288.39307"
           id="text222785"><tspan
             sodipodi:role="line"
             id="tspan222783"
             style="fill:#003636;fill-opacity:1;stroke-width:1.05571"
             x="-1601.0106"
             y="288.39307">for</tspan></text><g
           transform="matrix(1.0557064,0,0,1.0557064,-1458.2335,240.672)"
           id="g227295"><path
             fill="#f7931a"
             d="M 63.033,39.744 C 58.759,56.887 41.396,67.32 24.251,63.045 7.113,58.771 -3.32,41.407 0.956,24.265 5.228,7.12 22.591,-3.314 39.731,0.96 56.875,5.234 67.307,22.6 63.033,39.744 Z"
             id="path227291"
             style="fill:#000101;fill-opacity:1" /><path
             fill="#ffffff"
             d="M 46.103,27.444 C 46.74,23.186 43.498,20.897 39.065,19.37 l 1.438,-5.768 -3.511,-0.875 -1.4,5.616 c -0.923,-0.23 -1.871,-0.447 -2.813,-0.662 l 1.41,-5.653 -3.509,-0.875 -1.439,5.766 c -0.764,-0.174 -1.514,-0.346 -2.242,-0.527 l 0.004,-0.018 -4.842,-1.209 -0.934,3.75 c 0,0 2.605,0.597 2.55,0.634 1.422,0.355 1.679,1.296 1.636,2.042 l -1.638,6.571 c 0.098,0.025 0.225,0.061 0.365,0.117 -0.117,-0.029 -0.242,-0.061 -0.371,-0.092 l -2.296,9.205 c -0.174,0.432 -0.615,1.08 -1.609,0.834 0.035,0.051 -2.552,-0.637 -2.552,-0.637 l -1.743,4.019 4.569,1.139 c 0.85,0.213 1.683,0.436 2.503,0.646 l -1.453,5.834 3.507,0.875 1.439,-5.772 c 0.958,0.26 1.888,0.5 2.798,0.726 l -1.434,5.745 3.511,0.875 1.453,-5.823 c 5.987,1.133 10.489,0.676 12.384,-4.739 1.527,-4.36 -0.076,-6.875 -3.226,-8.515 2.294,-0.529 4.022,-2.038 4.483,-5.155 z m -8.022,11.249 c -1.085,4.36 -8.426,2.003 -10.806,1.412 l 1.928,-7.729 c 2.38,0.594 10.012,1.77 8.878,6.317 z m 1.086,-11.312 c -0.99,3.966 -7.1,1.951 -9.082,1.457 l 1.748,-7.01 c 1.982,0.494 8.365,1.416 7.334,5.553 z"
             id="path227293"
             style="fill:#ffffff;fill-opacity:1" /><g
             id="g230532"
             transform="translate(145.18784,37.451433)"><path
               fill="#253b80"
               d="m 46.211,6.749 h -6.839 c -0.468,0 -0.866,0.34 -0.939,0.802 l -2.766,17.537 c -0.055,0.346 0.213,0.658 0.564,0.658 h 3.265 c 0.468,0 0.866,-0.34 0.939,-0.803 l 0.746,-4.73 c 0.072,-0.463 0.471,-0.803 0.938,-0.803 h 2.165 c 4.505,0 7.105,-2.18 7.784,-6.5 C 52.374,11.02 52.081,9.535 51.196,8.495 50.224,7.353 48.5,6.749 46.211,6.749 Z M 47,13.154 c -0.374,2.454 -2.249,2.454 -4.062,2.454 h -1.032 l 0.724,-4.583 c 0.043,-0.277 0.283,-0.481 0.563,-0.481 h 0.473 c 1.235,0 2.4,0 3.002,0.704 0.359,0.42 0.469,1.044 0.332,1.906 z"
               id="path230497" /><path
               fill="#253b80"
               d="m 66.654,13.075 h -3.275 c -0.279,0 -0.52,0.204 -0.563,0.481 l -0.145,0.916 -0.229,-0.332 c -0.709,-1.029 -2.29,-1.373 -3.868,-1.373 -3.619,0 -6.71,2.741 -7.312,6.586 -0.313,1.918 0.132,3.752 1.22,5.031 0.998,1.176 2.426,1.666 4.125,1.666 2.916,0 4.533,-1.875 4.533,-1.875 l -0.146,0.91 c -0.055,0.348 0.213,0.66 0.562,0.66 h 2.95 c 0.469,0 0.865,-0.34 0.939,-0.803 l 1.77,-11.209 c 0.056,-0.345 -0.211,-0.658 -0.561,-0.658 z m -4.565,6.374 c -0.316,1.871 -1.801,3.127 -3.695,3.127 -0.951,0 -1.711,-0.305 -2.199,-0.883 -0.484,-0.574 -0.668,-1.391 -0.514,-2.301 0.295,-1.855 1.805,-3.152 3.67,-3.152 0.93,0 1.686,0.309 2.184,0.892 0.499,0.589 0.697,1.411 0.554,2.317 z"
               id="path230499" /><path
               fill="#253b80"
               d="m 84.096,13.075 h -3.291 c -0.314,0 -0.609,0.156 -0.787,0.417 l -4.539,6.686 -1.924,-6.425 c -0.121,-0.402 -0.492,-0.678 -0.912,-0.678 h -3.234 c -0.393,0 -0.666,0.384 -0.541,0.754 l 3.625,10.638 -3.408,4.811 c -0.268,0.379 0.002,0.9 0.465,0.9 h 3.287 c 0.312,0 0.604,-0.152 0.781,-0.408 l 10.946,-15.8 c 0.262,-0.378 -0.007,-0.895 -0.468,-0.895 z"
               id="path230501" /><path
               fill="#179bd7"
               d="m 94.992,6.749 h -6.84 c -0.467,0 -0.865,0.34 -0.938,0.802 l -2.766,17.537 c -0.055,0.346 0.213,0.658 0.562,0.658 h 3.51 c 0.326,0 0.605,-0.238 0.656,-0.562 l 0.785,-4.971 c 0.072,-0.463 0.471,-0.803 0.938,-0.803 h 2.164 c 4.506,0 7.105,-2.18 7.785,-6.5 0.307,-1.89 0.012,-3.375 -0.873,-4.415 C 99.004,7.353 97.281,6.749 94.992,6.749 Z m 0.789,6.405 c -0.373,2.454 -2.248,2.454 -4.062,2.454 h -1.031 l 0.725,-4.583 c 0.043,-0.277 0.281,-0.481 0.562,-0.481 h 0.473 c 1.234,0 2.4,0 3.002,0.704 0.359,0.42 0.468,1.044 0.331,1.906 z"
               id="path230503" /><path
               fill="#179bd7"
               d="m 115.434,13.075 h -3.273 c -0.281,0 -0.52,0.204 -0.562,0.481 l -0.145,0.916 -0.23,-0.332 c -0.709,-1.029 -2.289,-1.373 -3.867,-1.373 -3.619,0 -6.709,2.741 -7.311,6.586 -0.312,1.918 0.131,3.752 1.219,5.031 1,1.176 2.426,1.666 4.125,1.666 2.916,0 4.533,-1.875 4.533,-1.875 l -0.146,0.91 c -0.055,0.348 0.213,0.66 0.564,0.66 h 2.949 c 0.467,0 0.865,-0.34 0.938,-0.803 l 1.771,-11.209 c 0.054,-0.345 -0.214,-0.658 -0.565,-0.658 z m -4.565,6.374 c -0.314,1.871 -1.801,3.127 -3.695,3.127 -0.949,0 -1.711,-0.305 -2.199,-0.883 -0.484,-0.574 -0.666,-1.391 -0.514,-2.301 0.297,-1.855 1.805,-3.152 3.67,-3.152 0.93,0 1.686,0.309 2.184,0.892 0.501,0.589 0.699,1.411 0.554,2.317 z"
               id="path230505" /><path
               fill="#179bd7"
               d="m 119.295,7.23 -2.807,17.858 c -0.055,0.346 0.213,0.658 0.562,0.658 h 2.822 c 0.469,0 0.867,-0.34 0.939,-0.803 l 2.768,-17.536 c 0.055,-0.346 -0.213,-0.659 -0.562,-0.659 h -3.16 c -0.279,10e-4 -0.519,0.205 -0.562,0.482 z"
               id="path230507" /><path
               fill="#253b80"
               d="M 7.266,29.154 7.789,25.832 6.624,25.805 H 1.061 L 4.927,1.292 C 4.939,1.218 4.978,1.149 5.035,1.1 5.092,1.051 5.165,1.024 5.241,1.024 h 9.38 c 3.114,0 5.263,0.648 6.385,1.927 0.526,0.6 0.861,1.227 1.023,1.917 0.17,0.724 0.173,1.589 0.007,2.644 l -0.012,0.077 v 0.676 l 0.526,0.298 c 0.443,0.235 0.795,0.504 1.065,0.812 0.45,0.513 0.741,1.165 0.864,1.938 0.127,0.795 0.085,1.741 -0.123,2.812 -0.24,1.232 -0.628,2.305 -1.152,3.183 -0.482,0.809 -1.096,1.48 -1.825,2 -0.696,0.494 -1.523,0.869 -2.458,1.109 -0.906,0.236 -1.939,0.355 -3.072,0.355 h -0.73 c -0.522,0 -1.029,0.188 -1.427,0.525 -0.399,0.344 -0.663,0.814 -0.744,1.328 l -0.055,0.299 -0.924,5.855 -0.042,0.215 c -0.011,0.068 -0.03,0.102 -0.058,0.125 -0.025,0.021 -0.061,0.035 -0.096,0.035 z"
               id="path230509" /><path
               fill="#179bd7"
               d="m 23.048,7.667 v 0 0 c -0.028,0.179 -0.06,0.362 -0.096,0.55 -1.237,6.351 -5.469,8.545 -10.874,8.545 H 9.326 c -0.661,0 -1.218,0.48 -1.321,1.132 v 0 0 L 6.596,26.83 6.197,29.363 c -0.067,0.428 0.263,0.814 0.695,0.814 h 4.881 c 0.578,0 1.069,-0.42 1.16,-0.99 l 0.048,-0.248 0.919,-5.832 0.059,-0.32 c 0.09,-0.572 0.582,-0.992 1.16,-0.992 h 0.73 c 4.729,0 8.431,-1.92 9.513,-7.476 C 25.814,11.998 25.58,10.06 24.384,8.697 24.022,8.286 23.573,7.945 23.048,7.667 Z"
               id="path230511" /><path
               fill="#222d65"
               d="M 21.754,7.151 C 21.565,7.096 21.37,7.046 21.17,7.001 20.969,6.957 20.763,6.918 20.551,6.884 19.809,6.764 18.996,6.707 18.125,6.707 h -7.352 c -0.181,0 -0.353,0.041 -0.507,0.115 C 9.927,6.985 9.675,7.306 9.614,7.699 L 8.05,17.605 8.005,17.894 c 0.103,-0.652 0.66,-1.132 1.321,-1.132 h 2.752 c 5.405,0 9.637,-2.195 10.874,-8.545 C 22.989,8.029 23.02,7.846 23.048,7.667 22.735,7.501 22.396,7.359 22.031,7.238 21.941,7.208 21.848,7.179 21.754,7.151 Z"
               id="path230513" /><path
               fill="#253b80"
               d="M 9.614,7.699 C 9.675,7.306 9.927,6.985 10.266,6.823 10.421,6.749 10.592,6.708 10.773,6.708 h 7.352 c 0.871,0 1.684,0.057 2.426,0.177 0.212,0.034 0.418,0.073 0.619,0.117 0.2,0.045 0.395,0.095 0.584,0.15 0.094,0.028 0.187,0.057 0.278,0.086 0.365,0.121 0.704,0.264 1.017,0.429 C 23.417,5.32 23.046,3.722 21.777,2.275 20.378,0.682 17.853,0 14.622,0 H 5.242 C 4.582,0 4.019,0.48 3.917,1.133 L 0.01,25.898 c -0.077,0.49 0.301,0.932 0.795,0.932 H 6.596 L 8.05,17.605 Z"
               id="path230515" /></g></g></g></g></g></svg>
