<?xml version="1.0" encoding="UTF-8" standalone="no"?>
<svg
   width="561.82428pt"
   height="543.53711pt"
   version="1.1"
   viewBox="0 0 561.82428 543.5371"
   id="svg141467"
   sodipodi:docname="fevrbox.svg"
   inkscape:version="1.1.2 (0a00cf5339, 2022-02-04)"
   xmlns:inkscape="http://www.inkscape.org/namespaces/inkscape"
   xmlns:sodipodi="http://sodipodi.sourceforge.net/DTD/sodipodi-0.dtd"
   xmlns="http://www.w3.org/2000/svg"
   xmlns:svg="http://www.w3.org/2000/svg">
  <sodipodi:namedview
     id="namedview141469"
     pagecolor="#ffffff"
     bordercolor="#666666"
     borderopacity="1.0"
     inkscape:pageshadow="2"
     inkscape:pageopacity="0.0"
     inkscape:pagecheckerboard="0"
     inkscape:document-units="pt"
     showgrid="false"
     inkscape:zoom="0.95459415"
     inkscape:cx="429.5019"
     inkscape:cy="370.83822"
     inkscape:window-width="1920"
     inkscape:window-height="1051"
     inkscape:window-x="0"
     inkscape:window-y="0"
     inkscape:window-maximized="1"
     inkscape:current-layer="layer15" />
  <defs
     id="defs141441">
    <symbol
       id="e"
       overflow="visible">
      <path
         d="m 39.078,-2.3281 c -2.0117,1.043 -4.1094,1.8281 -6.2969,2.3594 -2.1875,0.5313 -4.4648,0.79688 -6.8281,0.79688 -7.0859,0 -12.699,-1.9766 -16.844,-5.9375 -4.1367,-3.957 -6.2031,-9.3281 -6.2031,-16.109 0,-6.7891 2.0664,-12.164 6.2031,-16.125 4.1445,-3.9688 9.7578,-5.9531 16.844,-5.9531 2.3633,0 4.6406,0.26562 6.8281,0.79688 2.1875,0.53126 4.2852,1.3242 6.2969,2.375 v 8.7969 c -2.0312,-1.3828 -4.0391,-2.3984 -6.0156,-3.0469 -1.9688,-0.64453 -4.0469,-0.96875 -6.2344,-0.96875 -3.9062,0 -6.9844,1.2578 -9.2344,3.7656 -2.2422,2.5 -3.3594,5.9531 -3.3594,10.359 0,4.3867 1.1172,7.8359 3.3594,10.344 2.25,2.5 5.3281,3.75 9.2344,3.75 2.1875,0 4.2656,-0.32031 6.2344,-0.96875 1.9766,-0.64453 3.9844,-1.6602 6.0156,-3.0469 z"
         id="path141426" />
    </symbol>
    <symbol
       id="a"
       overflow="visible">
      <path
         d="m 16.031,-40.953 v 9.0625 h 10.516 v 7.2812 H 16.031 v 13.531 c 0,1.4805 0.28906,2.4805 0.875,3 0.59375,0.52344 1.7656,0.78125 3.5156,0.78125 h 5.2344 v 7.2969 h -8.7344 c -4.0312,0 -6.8867,-0.83594 -8.5625,-2.5156 -1.6797,-1.6875 -2.5156,-4.5391 -2.5156,-8.5625 v -13.531 H 0.7654 v -7.2812 h 5.0781 v -9.0625 z"
         id="path141429" />
    </symbol>
    <symbol
       id="d"
       overflow="visible">
      <path
         d="M 26.594,-27.234 V -44.312 H 36.86 V 0 H 26.594 v -4.6094 c -1.3984,1.875 -2.9453,3.25 -4.6406,4.125 -1.6875,0.875 -3.6406,1.3125 -5.8594,1.3125 -3.9297,0 -7.1562,-1.5625 -9.6875,-4.6875 -2.5234,-3.125 -3.7812,-7.1445 -3.7812,-12.062 0,-4.9141 1.2578,-8.9375 3.7812,-12.062 2.5312,-3.125 5.7578,-4.6875 9.6875,-4.6875 2.1953,0 4.1445,0.44531 5.8438,1.3281 1.707,0.88672 3.2578,2.2578 4.6562,4.1094 z m -6.7188,20.656 c 2.1875,0 3.8516,-0.79688 5,-2.3906 1.1445,-1.5938 1.7188,-3.9102 1.7188,-6.9531 0,-3.0391 -0.57422,-5.3594 -1.7188,-6.9531 -1.1484,-1.5938 -2.8125,-2.3906 -5,-2.3906 -2.168,0 -3.8242,0.79688 -4.9688,2.3906 -1.1484,1.5938 -1.7188,3.9141 -1.7188,6.9531 0,3.043 0.57031,5.3594 1.7188,6.9531 1.1445,1.5938 2.8008,2.3906 4.9688,2.3906 z"
         id="path141432" />
    </symbol>
    <symbol
       id="c"
       overflow="visible">
      <path
         d="m 21.875,-6.5781 c 2.1758,0 3.8359,-0.79688 4.9844,-2.3906 1.1562,-1.5938 1.7344,-3.9102 1.7344,-6.9531 0,-3.0391 -0.57812,-5.3594 -1.7344,-6.9531 -1.1484,-1.5938 -2.8086,-2.3906 -4.9844,-2.3906 -2.1875,0 -3.8672,0.80469 -5.0312,2.4062 -1.168,1.6055 -1.75,3.918 -1.75,6.9375 0,3.0234 0.58203,5.3359 1.75,6.9375 1.1641,1.6055 2.8438,2.4062 5.0312,2.4062 z m -6.7812,-20.656 c 1.4062,-1.8516 2.9609,-3.2227 4.6719,-4.1094 1.707,-0.88281 3.6719,-1.3281 5.8906,-1.3281 3.9375,0 7.1641,1.5625 9.6875,4.6875 2.5195,3.125 3.7812,7.1484 3.7812,12.062 0,4.918 -1.2617,8.9375 -3.7812,12.062 -2.5234,3.125 -5.75,4.6875 -9.6875,4.6875 -2.2188,0 -4.1836,-0.44531 -5.8906,-1.3281 -1.7109,-0.88281 -3.2656,-2.2539 -4.6719,-4.1094 V -7e-4 H 4.9058 v -44.312 h 10.188 z"
         id="path141435" />
    </symbol>
    <symbol
       id="b"
       overflow="visible">
      <path
         d="m 0.28125,-42.516 h 11.031 l 11.266,31.375 11.25,-31.375 h 11.031 L 29.10925,0 h -13.078 z"
         id="path141438" />
    </symbol>
    <filter
       style="color-interpolation-filters:sRGB"
       inkscape:label="Drop Shadow"
       id="filter161130"
       x="-0.023293404"
       y="-0.019275073"
       width="1.1006552"
       height="1.0833356">
      <feFlood
         flood-opacity="0.74902"
         flood-color="rgb(0,0,0)"
         result="flood"
         id="feFlood161120" />
      <feComposite
         in="flood"
         in2="SourceGraphic"
         operator="in"
         result="composite1"
         id="feComposite161122" />
      <feGaussianBlur
         in="composite1"
         stdDeviation="3"
         result="blur"
         id="feGaussianBlur161124" />
      <feOffset
         dx="20"
         dy="20"
         result="offset"
         id="feOffset161126" />
      <feComposite
         in="SourceGraphic"
         in2="offset"
         operator="over"
         result="composite2"
         id="feComposite161128" />
    </filter>
    <filter
       style="color-interpolation-filters:sRGB"
       inkscape:label="Drop Shadow"
       id="filter161130-6"
       x="-0.023293404"
       y="-0.019275073"
       width="1.1006552"
       height="1.0833356">
      <feFlood
         flood-opacity="0.74902"
         flood-color="rgb(0,0,0)"
         result="flood"
         id="feFlood161120-1" />
      <feComposite
         in="flood"
         in2="SourceGraphic"
         operator="in"
         result="composite1"
         id="feComposite161122-8" />
      <feGaussianBlur
         in="composite1"
         stdDeviation="3"
         result="blur"
         id="feGaussianBlur161124-7" />
      <feOffset
         dx="20"
         dy="20"
         result="offset"
         id="feOffset161126-9" />
      <feComposite
         in="SourceGraphic"
         in2="offset"
         operator="over"
         result="composite2"
         id="feComposite161128-2" />
    </filter>
    <filter
       style="color-interpolation-filters:sRGB"
       inkscape:label="Drop Shadow"
       id="filter161130-6-0"
       x="-0.023293404"
       y="-0.019275073"
       width="1.1006552"
       height="1.0833356">
      <feFlood
         flood-opacity="0.74902"
         flood-color="rgb(0,0,0)"
         result="flood"
         id="feFlood161120-1-2" />
      <feComposite
         in="flood"
         in2="SourceGraphic"
         operator="in"
         result="composite1"
         id="feComposite161122-8-3" />
      <feGaussianBlur
         in="composite1"
         stdDeviation="3"
         result="blur"
         id="feGaussianBlur161124-7-7" />
      <feOffset
         dx="20"
         dy="20"
         result="offset"
         id="feOffset161126-9-5" />
      <feComposite
         in="SourceGraphic"
         in2="offset"
         operator="over"
         result="composite2"
         id="feComposite161128-2-9" />
    </filter>
    <filter
       style="color-interpolation-filters:sRGB"
       inkscape:menu-tooltip="Adds a small scale crossy graininess"
       inkscape:menu="Overlays"
       inkscape:label="Cross Noise B"
       id="filter163528"
       x="-0.0029940767"
       y="-0.0037940941"
       width="1.0059882"
       height="1.0075882">
      <feColorMatrix
         result="result6"
         values="1 0 0 0 0 0 1 0 0 0 0 0 1 0 0 0 0 0 1 1 "
         id="feColorMatrix163514" />
      <feTurbulence
         result="result0"
         seed="0"
         baseFrequency="1"
         numOctaves="5"
         type="fractalNoise"
         id="feTurbulence163516" />
      <feConvolveMatrix
         result="result5"
         order="5 5"
         kernelMatrix="-2 0 0 0 -2 0 -2 0 -2 0 0 0 -10 0 0 0 -2 0 -2 0 -2 0 0 0 -2 "
         targetX="2"
         targetY="2"
         id="feConvolveMatrix163518" />
      <feColorMatrix
         in="result5"
         type="saturate"
         values="0"
         result="result4"
         id="feColorMatrix163520" />
      <feComposite
         in2="result6"
         result="result2"
         k3="0.5"
         k2="0.5"
         k1="1.5"
         operator="arithmetic"
         in="result4"
         id="feComposite163522"
         k4="0" />
      <feBlend
         result="result7"
         mode="normal"
         in2="result4"
         id="feBlend163524" />
      <feComposite
         in2="SourceGraphic"
         result="result3"
         operator="in"
         in="result7"
         id="feComposite163526" />
    </filter>
  </defs>
  <g
     inkscape:groupmode="layer"
     id="layer15"
     inkscape:label="bg"
     style="display:inline">
    <rect
       style="fill:#551212;fill-opacity:1;stroke:none;stroke-width:0;stroke-linejoin:round;stroke-miterlimit:4;stroke-dasharray:none;stroke-opacity:1"
       id="rect163631"
       width="518.55878"
       height="359.1239"
       x="22.881371"
       y="126.25427"
       ry="10.119975" />
    <rect
       style="fill:#000000;fill-opacity:1;stroke:none;stroke-width:0;stroke-linejoin:round;stroke-miterlimit:4;stroke-dasharray:none;stroke-opacity:1"
       id="rect176084"
       width="68.309998"
       height="51.06321"
       x="73.668968"
       y="482.48474"
       ry="9.3339748" />
    <rect
       style="display:inline;fill:#000000;fill-opacity:1;stroke:none;stroke-width:0;stroke-linejoin:round;stroke-miterlimit:4;stroke-dasharray:none;stroke-opacity:1"
       id="rect176084-2"
       width="68.309998"
       height="51.06321"
       x="421.13095"
       y="482.85602"
       ry="9.3339748" />
  </g>
  <g
     inkscape:groupmode="layer"
     id="layer16"
     inkscape:label="screen bg"
     style="display:inline">
    <rect
       style="fill:#fffbf9;fill-opacity:1;stroke:none;stroke-width:0;stroke-linejoin:round;stroke-miterlimit:4;stroke-dasharray:none;stroke-opacity:1"
       id="rect167520"
       width="321.19083"
       height="253.46498"
       x="69.508446"
       y="179.93773" />
  </g>
  <g
     inkscape:groupmode="layer"
     id="layer14"
     inkscape:label="screen"
     transform="translate(-3.8211927,2.6700439)"
     style="display:inline">
    <rect
       style="fill:#949494;fill-opacity:1;stroke:#f0ffff;stroke-width:1.92334;stroke-linejoin:round;stroke-miterlimit:4;stroke-dasharray:none;stroke-opacity:1;filter:url(#filter163528)"
       id="rect163432"
       width="321.19083"
       height="253.46498"
       x="73.329636"
       y="177.26768" />
  </g>
  <g
     inkscape:groupmode="layer"
     id="layer13"
     inkscape:label="tv"
     style="display:inline"
     transform="translate(-3.8211927,2.6700439)">
    <g
       id="g141465"
       transform="translate(-64.358538,-6.2969307)">
      <path
         d="m 583.33,114.33 c -418.11261,0.64837 -252.47441,1.64647 -466.66,0 -25.668,0 -46.668,21 -46.668,46.668 v 296.33 c 0,25.668 21,46.668 46.668,46.668 h 16.332 v 31.5 c 0,7 4.668,11.668 11.668,11.668 h 67.668 c 7,0 11.668,-4.668 11.668,-11.668 v -31.5 h 253.17 v 31.5 c 0,7 4.668,11.668 11.668,11.668 h 67.668 c 7,0 11.668,-4.668 11.668,-11.668 v -31.5 h 15.156 c 25.668,0 46.668,-21 46.668,-46.668 v -296.33 c 0,-25.668 -21,-46.668 -46.668,-46.668 z M 199.5,522.67 h -43.168 v -18.668 h 44.332 l 0.004,18.668 z m 344.17,0 h -44.332 v -18.668 h 44.332 z m 63,-66.5 c 0,12.832 -10.5,23.332 -23.332,23.332 h -466.67 c -12.832,0 -23.332,-10.5 -23.332,-23.332 L 93.332093,161 c 0,-12.832 10.499997,-23.332 23.331997,-23.332 h 466.67 c 12.832,0 23.332,10.5 23.332,23.332 z"
         id="path141443"
         sodipodi:nodetypes="ccssscssssccsssscsssscccccccccccccssccsscc" />
      <path
         d="M 431.67,161 H 163.33 c -25.668,0 -46.668,21 -46.668,46.668 v 203 c 0,25.668 21,46.668 46.668,46.668 h 268.33 c 25.668,0 46.668,-21 46.668,-46.668 v -203 C 478.328,182 457.328,161 431.664,161 Z m 23.332,248.5 c 0,12.832 -10.5,23.332 -23.332,23.332 H 163.33 c -12.832,0 -23.332,-10.5 -23.332,-23.332 V 207.67 c 0,-12.832 10.5,-23.332 23.332,-23.332 h 268.33 c 12.832,0 23.332,10.5 23.332,23.332 z"
         id="path141445" />
      <path
         d="m 570.5,411.83 h -51.332 c -7,0 -11.668,4.668 -11.668,11.668 0,7 4.668,11.668 11.668,11.668 H 570.5 c 7,0 11.668,-4.668 11.668,-11.668 0,-7 -4.668,-11.668 -11.668,-11.668 z"
         id="path141447" />
      <path
         d="m 570.5,350 h -51.332 c -7,0 -11.668,4.668 -11.668,11.668 0,7 4.668,11.668 11.668,11.668 H 570.5 c 7,0 11.668,-4.668 11.668,-11.668 0,-7 -4.668,-11.668 -11.668,-11.668 z"
         id="path141449" />
      <path
         d="m 546,178.5 c -25.668,0 -47.832,21 -47.832,47.832 0,26.832 21,47.832 47.832,47.832 25.668,0 47.832,-21 47.832,-47.832 C 593.832,199.5 571.668,178.5 546,178.5 Z m 0,72.332 c -12.832,0 -24.5,-10.5 -24.5,-24.5 0,-14 10.5,-24.5 24.5,-24.5 12.832,0 24.5,10.5 24.5,24.5 0,14 -11.668,24.5 -24.5,24.5 z"
         id="path141451" />
    </g>
  </g>
  <g
     inkscape:groupmode="layer"
     id="layer12"
     inkscape:label="fEVR"
     style="display:inline"
     transform="translate(-3.8211927,2.6700439)">
    <g
       id="g163407"
       transform="translate(6,1.5)">
      <g
         id="g144141"
         style="display:inline"
         transform="matrix(0.7104248,0,0,0.7104248,1188.4053,-61.726727)">
        <path
           d="m -1614.7419,512.5408 c 1.5286,12.89157 14.3309,21.65381 6.6877,23.66814 -7.6431,2.01427 -41.0821,-63.95436 -48.7253,-92.15475 -7.6431,-28.20034 -11.9424,-59.92576 -10.0317,-78.05455 1.9108,-18.12878 100.7946,-46.32912 100.7946,-53.88275 0,-7.55369 -32.0059,-0.50358 -33.4389,-6.54652 -1.4331,-6.04294 24.1715,-2.41718 31.0504,-12.08588 10.7483,-15.10732 24.3627,-12.58943 32.9612,-20.64667 8.5986,-8.05725 19.108,-38.77547 21.0188,-51.86852 1.9108,-13.09298 -19.1079,-28.20033 -24.8403,-38.27187 -5.7324,-10.07155 12.4201,-17.12166 56.3685,-36.25758 43.9483,-19.13596 183.4365,-61.436471 185.3473,-56.4007 1.9108,5.03577 -45.8591,26.18603 -79.2981,39.27905 -33.4389,13.09301 -87.8966,38.27191 -87.8966,45.32198 0,7.05008 2.8661,12.58943 0.9554,28.70392 -1.9109,16.11449 -2.1402,23.63895 -5.7325,34.24327 -2.3885,7.05008 -4.7769,23.66815 0,38.77547 3.8216,12.08588 16.2418,21.15029 21.9742,23.16459 4.777,0.33538 17.9615,0.80573 32.4836,0 18.1525,-1.00714 43.9483,1.00714 43.9483,6.04294 0,5.03574 -39.1713,2.0143 -39.1713,9.06438 0,7.05007 40.1267,-1.00714 39.1713,6.04294 -0.9554,7.05007 -33.439,4.0286 -50.6361,4.0286 -13.7578,0 -34.0762,-0.67179 -42.9929,-4.0286 l -1.9108,7.05007 c -3.1844,0 -9.8407,2.01431 -16.7195,2.01431 -8.5986,0 -9.0763,3.02147 -24.8404,3.02147 -15.7641,0 -10.987,-1.00717 -25.318,-2.01431 -14.331,-1.00716 -67.8333,42.30052 -77.3873,56.40064 -9.554,14.10018 -3.8216,48.34355 -3.8216,63.95445 0,14.02761 -1.9108,45.32196 0,61.43648 z"
           fill="#b1b9c6"
           id="path77"
           style="opacity:1;fill:#003636;fill-opacity:1;stroke:#f0ffff;stroke-width:2.81522;stroke-miterlimit:4;stroke-dasharray:none;stroke-opacity:1;filter:url(#filter161130-6-0)"
           class="themeUIElement"
           inkscape:label="path77" />
        <g
           aria-label="EVR"
           transform="matrix(2.8059564,0,0,2.6232796,-1651.1094,149.24465)"
           id="text40985"
           style="font-size:83.5021px;line-height:1.25;font-family:Roboto;-inkscape-font-specification:Roboto;white-space:pre;inline-size:690.468;opacity:1;fill:#003636;stroke-width:0">
          <path
             d="M 33.671804,140.2972 V 80.932423 H 70.97865 v 6.442056 H 41.540898 v 19.081531 h 25.686681 v 6.40129 H 41.540898 v 21.03861 h 29.845477 v 6.40129 z"
             id="path131157" />
          <path
             d="M 126.30695,80.932423 104.33056,140.2972 H 97.358464 L 75.422855,80.932423 h 8.521454 l 16.839051,48.927007 17.00213,-48.927007 z"
             id="path131159" />
          <path
             d="m 168.99577,140.2972 -12.88412,-24.05578 h -13.9442 v 24.05578 h -7.86909 V 80.932423 h 19.65235 q 9.98926,0 15.37124,4.566521 5.42274,4.566521 5.42274,13.251065 0,5.545061 -3.01717,9.703861 -2.97639,4.11802 -8.27682,6.15664 l 13.9442,25.19742 v 0.48927 z M 142.16745,87.374479 v 22.465651 h 12.02789 q 6.31974,0 9.5,-3.22103 3.22103,-3.2618 3.22103,-7.869091 0,-5.137336 -3.09871,-8.236047 -3.05794,-3.139483 -9.86695,-3.139483 z"
             id="path131161" />
        </g>
      </g>
      <g
         aria-label="box"
         id="text146853"
         style="font-size:125px;line-height:1.25;fill:#f0ffff;stroke:#003636;stroke-width:2"
         transform="translate(-74.82222,-8.160997)">
        <path
           d="m 308.37349,384.38245 q 0,14.46533 -6.71387,23.98681 -6.71386,9.52149 -18.98193,9.52149 -12.51221,0 -19.28711,-8.8501 l -0.61035,7.62939 h -10.37598 v -93.75 h 11.35254 v 34.85108 q 6.71387,-8.36182 18.79883,-8.36182 12.45117,0 19.104,9.27735 6.71387,9.27734 6.71387,24.41406 z M 279.748,358.93079 q -6.16455,0 -10.00976,2.99072 -3.84522,2.92969 -5.98145,7.26318 v 28.74756 q 2.19727,4.39453 6.10352,7.38525 3.90625,2.99073 10.00976,2.99073 9.15527,0 13.12256,-7.01905 4.02832,-7.08007 4.02832,-16.90673 v -1.28174 q 0,-9.82666 -3.84521,-16.96778 -3.78418,-7.20214 -13.42774,-7.20214 z"
           id="path162244" />
        <path
           d="m 319.66499,382.97864 q 0,-14.34326 8.05664,-23.92578 8.05664,-9.64356 21.91163,-9.64356 13.85498,0 21.91162,9.46045 8.05664,9.39942 8.23974,23.49854 v 2.01416 q 0,14.34326 -8.11767,23.92578 -8.05664,9.58252 -21.91162,9.58252 -13.91602,0 -22.0337,-9.58252 -8.05664,-9.58252 -8.05664,-23.92578 z m 11.29151,1.40381 q 0,9.82666 4.63867,17.0288 4.69971,7.20215 14.16016,7.20215 9.2163,0 13.91601,-7.08007 4.69971,-7.14112 4.76074,-16.96778 v -1.58691 q 0,-9.70459 -4.6997,-16.96778 -4.69971,-7.32421 -14.09912,-7.32421 -9.33838,0 -14.03809,7.32421 -4.63867,7.26319 -4.63867,16.96778 z"
           id="path162246" />
        <path
           d="M 400.29243,350.63 414.75777,374.67786 429.4062,350.63 h 13.24463 l -21.60644,32.59278 22.27783,33.44726 H 430.2607 l -15.25879,-24.78027 -15.25879,24.78027 H 386.62056 L 408.83736,383.22278 387.29195,350.63 Z"
           id="path162248" />
      </g>
    </g>
  </g>
</svg>
