<?xml version="1.0" encoding="UTF-8" standalone="no"?>
<svg
   width="1046.5636pt"
   height="708.90997pt"
   version="1.1"
   viewBox="0 0 1046.5636 708.90997"
   id="svg76772"
   sodipodi:docname="fevrstorm-full.svg"
   inkscape:version="1.1.2 (0a00cf5339, 2022-02-04)"
   xmlns:inkscape="http://www.inkscape.org/namespaces/inkscape"
   xmlns:sodipodi="http://sodipodi.sourceforge.net/DTD/sodipodi-0.dtd"
   xmlns="http://www.w3.org/2000/svg"
   xmlns:svg="http://www.w3.org/2000/svg">
  <sodipodi:namedview
     id="namedview76774"
     pagecolor="#ffffff"
     bordercolor="#666666"
     borderopacity="1.0"
     inkscape:pageshadow="2"
     inkscape:pageopacity="0.0"
     inkscape:pagecheckerboard="true"
     inkscape:document-units="pt"
     showgrid="false"
     inkscape:zoom="0.47729708"
     inkscape:cx="235.70226"
     inkscape:cy="731.20079"
     inkscape:window-width="1920"
     inkscape:window-height="1051"
     inkscape:window-x="0"
     inkscape:window-y="0"
     inkscape:window-maximized="1"
     inkscape:current-layer="layer4" />
  <defs
     id="defs76738">
    <symbol
       id="l"
       overflow="visible">
      <path
         d="m 29.312,-1.75 c -1.5117,0.78125 -3.0898,1.3711 -4.7344,1.7656 -1.6367,0.40625 -3.3398,0.60938 -5.1094,0.60938 -5.3125,0 -9.5273,-1.4844 -12.641,-4.4531 -3.1055,-2.9688 -4.6562,-7 -4.6562,-12.094 0,-5.094 1.5508,-9.125 4.6562,-12.094 3.1133,-2.9688 7.3281,-4.4531 12.641,-4.4531 1.7695,0 3.4727,0.19922 5.1094,0.59375 1.6445,0.39844 3.2227,0.99219 4.7344,1.7812 v 6.5938 c -1.5312,-1.0391 -3.0391,-1.8008 -4.5156,-2.2812 -1.4805,-0.48828 -3.0391,-0.73438 -4.6719,-0.73438 -2.9375,0 -5.2461,0.94531 -6.9219,2.8281 -1.6797,1.875 -2.5156,4.4648 -2.5156,7.7656 0,3.293 0.83594,5.8828 2.5156,7.7656 1.6758,1.875 3.9844,2.8125 6.9219,2.8125 1.6328,0 3.1914,-0.23828 4.6719,-0.71875 1.4766,-0.48828 2.9844,-1.2539 4.5156,-2.2969 z"
         id="path76702" />
    </symbol>
    <symbol
       id="i"
       overflow="visible">
      <path
         d="m 21.453,-17.406 c -0.67969,-0.3125 -1.3516,-0.53906 -2.0156,-0.6875 -0.65625,-0.15625 -1.3203,-0.23438 -1.9844,-0.23438 -1.9688,0 -3.4844,0.63281 -4.5469,1.8906 -1.0547,1.2617 -1.5781,3.0703 -1.5781,5.4219 V 6.2e-4 H 3.6718 v -23.922 h 7.6562 v 3.9219 c 0.97656,-1.5625 2.1016,-2.7031 3.375,-3.4219 1.2812,-0.71875 2.8125,-1.0781 4.5938,-1.0781 0.25,0 0.52344,0.01172 0.82812,0.03125 0.30078,0.02344 0.73438,0.07031 1.2969,0.14062 z"
         id="path76705" />
    </symbol>
    <symbol
       id="a"
       overflow="visible">
      <path
         d="m 27.562,-12.031 v 2.1875 H 9.671 c 0.1875,1.793 0.83203,3.1367 1.9375,4.0312 1.1133,0.89844 2.6719,1.3438 4.6719,1.3438 1.6016,0 3.25,-0.23438 4.9375,-0.70312 1.6875,-0.47656 3.4219,-1.2031 5.2031,-2.1719 v 5.8906 c -1.8047,0.6875 -3.6094,1.2031 -5.4219,1.5469 -1.8125,0.35156 -3.6211,0.53125 -5.4219,0.53125 -4.3359,0 -7.7031,-1.0977 -10.109,-3.2969 -2.3984,-2.207 -3.5938,-5.2969 -3.5938,-9.2656 0,-3.9062 1.1758,-6.9727 3.5312,-9.2031 2.3633,-2.2383 5.6094,-3.3594 9.7344,-3.3594 3.7578,0 6.7695,1.1367 9.0312,3.4062 2.2578,2.2617 3.3906,5.2812 3.3906,9.0625 z m -7.8594,-2.5312 c 0,-1.457 -0.42969,-2.6289 -1.2812,-3.5156 -0.84375,-0.89453 -1.9492,-1.3438 -3.3125,-1.3438 -1.4922,0 -2.6992,0.41797 -3.625,1.25 -0.91797,0.83594 -1.4922,2.0391 -1.7188,3.6094 z"
         id="path76708" />
    </symbol>
    <symbol
       id="h"
       overflow="visible">
      <path
         d="m 14.391,-10.766 c -1.5938,0 -2.793,0.27344 -3.5938,0.8125 -0.80469,0.54297 -1.2031,1.3398 -1.2031,2.3906 0,0.96875 0.32031,1.7305 0.96875,2.2812 0.64453,0.54297 1.5469,0.8125 2.7031,0.8125 1.4375,0 2.6445,-0.51562 3.625,-1.5469 0.98828,-1.0312 1.4844,-2.3203 1.4844,-3.875 v -0.875 z m 11.688,-2.8906 V -6e-4 h -7.7031 v -3.5469 c -1.0312,1.4492 -2.1875,2.5078 -3.4688,3.1719 -1.2813,0.6641 -2.8398,1 -4.6719,1 -2.4805,0 -4.4961,-0.72266 -6.0469,-2.1719 -1.543,-1.4453 -2.3125,-3.3203 -2.3125,-5.625 0,-2.8125 0.96094,-4.8672 2.8906,-6.1719 1.9375,-1.3125 4.9688,-1.9688 9.0938,-1.9688 h 4.5156 v -0.60938 c 0,-1.207 -0.48047,-2.0938 -1.4375,-2.6562 -0.94922,-0.5625 -2.4375,-0.84375 -4.4688,-0.84375 -1.6367,0 -3.1562,0.16797 -4.5625,0.5 -1.4062,0.32422 -2.7188,0.8125 -3.9375,1.4688 v -5.8281 c 1.6445,-0.40625 3.2891,-0.70703 4.9375,-0.90625 1.6562,-0.20703 3.3047,-0.3125 4.9531,-0.3125 4.3203,0 7.4375,0.85547 9.3438,2.5625 1.9141,1.6992 2.875,4.4609 2.875,8.2812 z"
         id="path76711" />
    </symbol>
    <symbol
       id="g"
       overflow="visible">
      <path
         d="m 12.031,-30.719 v 6.7969 h 7.875 v 5.4688 h -7.875 v 10.141 c 0,1.1172 0.21875,1.8711 0.65625,2.2656 0.4375,0.38672 1.3125,0.57812 2.625,0.57812 h 3.9375 v 5.4688 h -6.5625 c -3.0234,0 -5.1641,-0.62891 -6.4219,-1.8906 -1.2617,-1.2578 -1.8906,-3.3984 -1.8906,-6.4219 v -10.141 h -3.7969 v -5.4688 h 3.7969 v -6.7969 z"
         id="path76714" />
    </symbol>
    <symbol
       id="f"
       overflow="visible">
      <path
         d="m 19.953,-20.422 v -12.812 h 7.6875 V 0 H 19.953 v -3.4531 c -1.0547,1.4062 -2.2148,2.4375 -3.4844,3.0938 -1.2734,0.65625 -2.7422,0.98438 -4.4062,0.98438 -2.9492,0 -5.3711,-1.1719 -7.2656,-3.5156 -1.8867,-2.3438 -2.8281,-5.3594 -2.8281,-9.0469 0,-3.6875 0.94141,-6.7031 2.8281,-9.0469 1.8945,-2.3438 4.3164,-3.5156 7.2656,-3.5156 1.6562,0 3.1172,0.33594 4.3906,1 1.2812,0.65625 2.4453,1.6836 3.5,3.0781 z m -5.0469,15.484 c 1.6445,0 2.8945,-0.59766 3.75,-1.7969 0.86328,-1.1953 1.2969,-2.9297 1.2969,-5.2031 0,-2.2812 -0.43359,-4.0195 -1.2969,-5.2188 -0.85547,-1.1953 -2.1055,-1.7969 -3.75,-1.7969 -1.625,0 -2.8711,0.60156 -3.7344,1.7969 -0.85547,1.1992 -1.2812,2.9375 -1.2812,5.2188 0,2.2734 0.42578,4.0078 1.2812,5.2031 0.86328,1.1992 2.1094,1.7969 3.7344,1.7969 z"
         id="path76717" />
    </symbol>
    <symbol
       id="e"
       overflow="visible">
      <path
         d="m 16.406,-4.9375 c 1.6328,0 2.8828,-0.59766 3.75,-1.7969 0.86328,-1.1953 1.2969,-2.9297 1.2969,-5.2031 0,-2.2812 -0.43359,-4.0195 -1.2969,-5.2188 -0.86719,-1.1953 -2.1172,-1.7969 -3.75,-1.7969 -1.6367,0 -2.8906,0.60547 -3.7656,1.8125 -0.875,1.1992 -1.3125,2.9336 -1.3125,5.2031 0,2.2617 0.4375,3.9961 1.3125,5.2031 0.875,1.1992 2.1289,1.7969 3.7656,1.7969 z m -5.0781,-15.484 c 1.0508,-1.3945 2.2188,-2.4219 3.5,-3.0781 1.2812,-0.66406 2.7539,-1 4.4219,-1 2.9453,0 5.3672,1.1719 7.2656,3.5156 1.8945,2.3438 2.8438,5.3594 2.8438,9.0469 0,3.6875 -0.94922,6.7031 -2.8438,9.0469 -1.8984,2.3438 -4.3203,3.5156 -7.2656,3.5156 -1.668,0 -3.1406,-0.33594 -4.4219,-1 -1.2813,-0.66406 -2.4492,-1.6914 -3.5,-3.0781 V 4e-4 H 3.6717 v -33.234 h 7.6562 z"
         id="path76720" />
    </symbol>
    <symbol
       id="d"
       overflow="visible">
      <path
         d="m 0.53125,-23.922 h 7.6562 l 6.4219,16.234 5.4688,-16.234 h 7.6562 l -10.062,26.188 c -1.0117,2.6641 -2.1953,4.5234 -3.5469,5.5781 -1.3438,1.0625 -3.1211,1.5938 -5.3281,1.5938 H 4.37545 V 4.4223 h 2.3906 c 1.3008,0 2.2422,-0.21094 2.8281,-0.625 0.59375,-0.40625 1.0547,-1.1484 1.3906,-2.2188 l 0.20312,-0.65625 z"
         id="path76723" />
    </symbol>
    <symbol
       id="c"
       overflow="visible">
      <path
         d="m 4.0156,-31.891 h 10.469 l 7.2656,17.062 7.2969,-17.062 h 10.453 V 0 H 31.7189 V -23.328 L 24.3751,-6.125 H 19.1563 L 11.8125,-23.328 V 0 H 4.0156 Z"
         id="path76726" />
    </symbol>
    <symbol
       id="b"
       overflow="visible">
      <path
         d="m 15.062,-19.031 c -1.6992,0 -2.9961,0.60938 -3.8906,1.8281 -0.88672,1.2188 -1.3281,2.9766 -1.3281,5.2656 0,2.293 0.44141,4.0469 1.3281,5.2656 0.89453,1.2188 2.1914,1.8281 3.8906,1.8281 1.6641,0 2.9375,-0.60938 3.8125,-1.8281 0.88281,-1.2188 1.3281,-2.9727 1.3281,-5.2656 0,-2.2891 -0.44531,-4.0469 -1.3281,-5.2656 -0.875,-1.2188 -2.1484,-1.8281 -3.8125,-1.8281 z m 0,-5.4688 c 4.1133,0 7.3281,1.1094 9.6406,3.3281 2.3125,2.2187 3.4688,5.2969 3.4688,9.2344 0,3.9297 -1.1562,7.0078 -3.4688,9.2344 -2.3125,2.2188 -5.5273,3.3281 -9.6406,3.3281 -4.1367,0 -7.3711,-1.1094 -9.7031,-3.3281 -2.3242,-2.2266 -3.4844,-5.3047 -3.4844,-9.2344 0,-3.9375 1.1602,-7.0156 3.4844,-9.2344 2.332,-2.2188 5.5664,-3.3281 9.7031,-3.3281 z"
         id="path76729" />
    </symbol>
    <symbol
       id="k"
       overflow="visible">
      <path
         d="m 25.844,-19.953 c 0.96875,-1.4766 2.1172,-2.6016 3.4531,-3.375 1.332,-0.78125 2.7969,-1.1719 4.3906,-1.1719 2.75,0 4.8438,0.85156 6.2812,2.5469 1.4375,1.6875 2.1562,4.1523 2.1562,7.3906 V -4e-4 h -7.6875 v -12.469 c 0.0078,-0.1875 0.01953,-0.37891 0.03125,-0.57812 0.0078,-0.19531 0.01563,-0.48438 0.01563,-0.85938 0,-1.6953 -0.25,-2.9258 -0.75,-3.6875 -0.5,-0.75781 -1.3086,-1.1406 -2.4219,-1.1406 -1.4492,0 -2.5703,0.60156 -3.3594,1.7969 -0.79297,1.1992 -1.2031,2.9297 -1.2344,5.1875 v 11.75 h -7.6875 v -12.469 c 0,-2.6562 -0.23047,-4.3633 -0.6875,-5.125 -0.44922,-0.75781 -1.2578,-1.1406 -2.4219,-1.1406 -1.4688,0 -2.6055,0.60547 -3.4062,1.8125 -0.79297,1.1992 -1.1875,2.918 -1.1875,5.1562 V -5e-4 h -7.7031 v -23.922 h 7.7031 v 3.5 c 0.9375,-1.3516 2.0156,-2.3672 3.2344,-3.0469 1.2188,-0.6875 2.5547,-1.0312 4.0156,-1.0312 1.6562,0 3.1133,0.40234 4.375,1.2031 1.2695,0.79297 2.2344,1.9062 2.8906,3.3438 z"
         id="path76732" />
    </symbol>
    <symbol
       id="j"
       overflow="visible">
      <path
         d="m 22.359,-23.172 v 5.7969 c -1.6367,-0.67578 -3.2148,-1.1875 -4.7344,-1.5312 -1.5234,-0.34375 -2.9609,-0.51562 -4.3125,-0.51562 -1.4609,0 -2.543,0.18359 -3.25,0.54688 -0.69922,0.36719 -1.0469,0.92188 -1.0469,1.6719 0,0.61719 0.26562,1.0898 0.79688,1.4219 0.53125,0.32422 1.4883,0.5625 2.875,0.71875 l 1.3438,0.1875 c 3.9141,0.5 6.5508,1.3242 7.9062,2.4688 1.3516,1.1367 2.0312,2.9219 2.0312,5.3594 0,2.5547 -0.94531,4.4688 -2.8281,5.75 -1.875,1.2812 -4.6797,1.9219 -8.4062,1.9219 -1.5859,0 -3.2188,-0.125 -4.9062,-0.375 -1.6874,-0.25 -3.4219,-0.625 -5.2031,-1.125 v -5.8125 c 1.5195,0.74219 3.082,1.2969 4.6875,1.6719 1.6016,0.36719 3.2344,0.54688 4.8906,0.54688 1.4883,0 2.6094,-0.20312 3.3594,-0.60938 0.75781,-0.41406 1.1406,-1.0312 1.1406,-1.8438 0,-0.6875 -0.26172,-1.1953 -0.78125,-1.5312 -0.52344,-0.33203 -1.5586,-0.59375 -3.1094,-0.78125 l -1.3438,-0.17188 c -3.4062,-0.42578 -5.793,-1.2109 -7.1562,-2.3594 -1.3672,-1.1562 -2.0469,-2.9102 -2.0469,-5.2656 0,-2.5312 0.86719,-4.4062 2.6094,-5.625 1.7383,-1.2266 4.3984,-1.8438 7.9844,-1.8438 1.4062,0 2.8828,0.10938 4.4375,0.32812 1.5508,0.21094 3.2383,0.54297 5.0625,1 z"
         id="path76735" />
    </symbol>
  </defs>
  <g
     inkscape:groupmode="layer"
     id="layer5"
     inkscape:label="bgcircle"
     transform="translate(1667.2631,-89.626064)"
     style="opacity:0.75">
    <g
       id="g89674"
       transform="translate(-1676.1717,-388.98849)">
      <g
         id="g76770"
         style="fill:#8e7d00;fill-opacity:1;stroke:#004e4e;stroke-width:2.97362;stroke-miterlimit:4;stroke-dasharray:none;stroke-opacity:1"
         transform="matrix(-0.62870769,0.0448676,-0.05051893,-0.71591159,531.4548,1203.486)">
        <path
           d="m 546.77719,57.578159 -285,270.000001 76.797,31.105 -155.55,258.89 285,-270 -76.797,-31.105 z"
           id="path76740"
           style="fill:#8e7d00;fill-opacity:1;stroke:#004e4e;stroke-width:2.97362;stroke-miterlimit:4;stroke-dasharray:none;stroke-opacity:1" />
      </g>
      <path
         id="path88692"
         style="fill:#f0ffff;stroke:#003636;stroke-width:2.66667;stroke-linejoin:round;stroke-miterlimit:4;stroke-dasharray:none;stroke-opacity:1"
         d="M 243.85938,770.79102 A 142.58211,142.58211 0 0 0 118.55469,845.99805 142.58211,142.58211 0 0 0 47.789062,827.12695 142.58211,142.58211 0 0 0 -94.013672,960.80078 c -25.371038,17.67179 -37.204658,41.54062 -39.777348,73.00582 -7.45626,91.1939 73.050917,120.1994 340.66602,122.7403 267.61507,2.5408 352.73905,-24.8921 360.19531,-116.086 2.58488,-31.6143 -5.43393,-55.74323 -28.12304,-73.8984 a 142.58211,142.58211 0 0 0 0.70312,-8.02734 142.58211,142.58211 0 0 0 -142.58203,-142.58204 142.58211,142.58211 0 0 0 -43.07227,7.07227 142.58211,142.58211 0 0 0 -110.13671,-52.23437 z"
         transform="matrix(0.75,0,0,0.75,116.64173,83.915835)" />
    </g>
  </g>
  <g
     inkscape:groupmode="layer"
     id="layer4"
     inkscape:label="fEVR"
     style="display:inline"
     transform="translate(1667.2631,-89.626064)">
    <path
       d="m -1614.7419,512.5408 c 1.5286,12.89157 14.3309,21.65381 6.6877,23.66814 -7.6431,2.01427 -41.0821,-63.95436 -48.7253,-92.15475 -7.6431,-28.20034 -11.9424,-59.92576 -10.0317,-78.05455 1.9108,-18.12878 100.7946,-46.32912 100.7946,-53.88275 0,-7.55369 -32.0059,-0.50358 -33.4389,-6.54652 -1.4331,-6.04294 24.1715,-2.41718 31.0504,-12.08588 10.7483,-15.10732 24.3627,-12.58943 32.9612,-20.64667 8.5986,-8.05725 19.108,-38.77547 21.0188,-51.86852 1.9108,-13.09298 -19.1079,-28.20033 -24.8403,-38.27187 -5.7324,-10.07155 12.4201,-17.12166 56.3685,-36.25758 43.9483,-19.13596 183.4365,-61.436471 185.3473,-56.4007 1.9108,5.03577 -45.8591,26.18603 -79.2981,39.27905 -33.4389,13.09301 -87.8966,38.27191 -87.8966,45.32198 0,7.05008 2.8661,12.58943 0.9554,28.70392 -1.9109,16.11449 -2.1402,23.63895 -5.7325,34.24327 -2.3885,7.05008 -4.7769,23.66815 0,38.77547 3.8216,12.08588 16.2418,21.15029 21.9742,23.16459 4.777,0.33538 17.9615,0.80573 32.4836,0 18.1525,-1.00714 43.9483,1.00714 43.9483,6.04294 0,5.03574 -39.1713,2.0143 -39.1713,9.06438 0,7.05007 40.1267,-1.00714 39.1713,6.04294 -0.9554,7.05007 -33.439,4.0286 -50.6361,4.0286 -13.7578,0 -34.0762,-0.67179 -42.9929,-4.0286 l -1.9108,7.05007 c -3.1844,0 -9.8407,2.01431 -16.7195,2.01431 -8.5986,0 -9.0763,3.02147 -24.8404,3.02147 -15.7641,0 -10.987,-1.00717 -25.318,-2.01431 -14.331,-1.00716 -67.8333,42.30052 -77.3873,56.40064 -9.554,14.10018 -3.8216,48.34355 -3.8216,63.95445 0,14.02761 -1.9108,45.32196 0,61.43648 z"
       fill="#b1b9c6"
       id="path77"
       style="opacity:1;fill:#003636;fill-opacity:1;stroke:none;stroke-width:0;stroke-miterlimit:4;stroke-dasharray:none;stroke-opacity:1"
       class="themeUIElement"
       inkscape:label="path77" />
    <g
       aria-label="EVR"
       transform="matrix(2.8059564,0,0,2.6232796,-1651.1094,149.24465)"
       id="text40985"
       style="font-size:83.5021px;line-height:1.25;font-family:Roboto;-inkscape-font-specification:Roboto;white-space:pre;inline-size:690.468;opacity:1;fill:#003636;stroke-width:0">
      <path
         d="M 33.671804,140.2972 V 80.932423 H 70.97865 v 6.442056 H 41.540898 v 19.081531 h 25.686681 v 6.40129 H 41.540898 v 21.03861 h 29.845477 v 6.40129 z"
         id="path131157" />
      <path
         d="M 126.30695,80.932423 104.33056,140.2972 H 97.358464 L 75.422855,80.932423 h 8.521454 l 16.839051,48.927007 17.00213,-48.927007 z"
         id="path131159" />
      <path
         d="m 168.99577,140.2972 -12.88412,-24.05578 h -13.9442 v 24.05578 h -7.86909 V 80.932423 h 19.65235 q 9.98926,0 15.37124,4.566521 5.42274,4.566521 5.42274,13.251065 0,5.545061 -3.01717,9.703861 -2.97639,4.11802 -8.27682,6.15664 l 13.9442,25.19742 v 0.48927 z M 142.16745,87.374479 v 22.465651 h 12.02789 q 6.31974,0 9.5,-3.22103 3.22103,-3.2618 3.22103,-7.869091 0,-5.137336 -3.09871,-8.236047 -3.05794,-3.139483 -9.86695,-3.139483 z"
         id="path131161" />
    </g>
    <g
       aria-label="storm"
       id="text96495"
       style="font-size:200px;line-height:1.25;fill:#f0ffff;fill-opacity:1;stroke:#003636;stroke-width:2;stroke-miterlimit:4;stroke-dasharray:none;stroke-opacity:1"
       transform="translate(36,24)">
      <path
         d="m -1092.1332,464.229 q 0,-5.76171 -4.2969,-10.35156 -4.1992,-4.6875 -19.5312,-7.8125 -17.6758,-3.61328 -28.125,-10.44922 -10.4492,-6.93359 -10.4492,-20.11718 0,-12.5 10.6445,-21.67969 10.7422,-9.17969 28.5156,-9.17969 18.9453,0 29.5899,9.66797 10.6445,9.66797 10.6445,23.33984 h -18.0664 q 0,-6.54297 -5.7617,-12.30468 -5.7617,-5.85938 -16.4063,-5.85938 -11.2304,0 -16.1132,4.88281 -4.8829,4.88282 -4.8829,10.64453 0,5.76172 4.4922,9.375 4.5899,3.51563 19.336,6.83594 19.4336,4.39453 28.9062,11.52344 9.5703,7.12891 9.5703,20.11719 0,13.96484 -11.2304,22.65625 -11.1329,8.6914 -29.5899,8.6914 -20.9961,0 -32.1289,-10.74218 -11.1328,-10.74219 -11.1328,-23.82813 h 18.1641 q 0.5859,11.23047 8.5937,15.52734 8.1055,4.19922 16.5039,4.19922 11.0352,0 16.8945,-4.29687 5.8594,-4.29688 5.8594,-10.83985 z"
         id="path128947"
         style="fill:#f0ffff;fill-opacity:1;stroke:#003636;stroke-width:2;stroke-miterlimit:4;stroke-dasharray:none;stroke-opacity:1" />
      <path
         d="m -1005.7074,492.25635 q -6.1523,1.95312 -13.9648,1.95312 -10.0586,0 -17.1875,-6.15234 -7.1289,-6.15234 -7.1289,-22.07031 v -65.52735 h -19.336 v -13.86718 h 19.336 v -25.6836 h 18.0664 v 25.6836 h 19.7265 v 13.86718 h -19.7265 v 65.625 q 0,8.10547 3.5156,10.35157 3.5156,2.24609 8.1055,2.24609 3.4179,0 8.496,-1.17188 z"
         id="path128944"
         style="fill:#f0ffff;fill-opacity:1;stroke:#003636;stroke-width:2;stroke-miterlimit:4;stroke-dasharray:none;stroke-opacity:1" />
      <path
         d="m -991.74255,438.3501 q 0,-22.94922 12.89062,-38.28125 12.89063,-15.42969 35.0586,-15.42969 22.16796,0 35.05859,15.13672 12.89062,15.03906 13.18359,37.59766 v 3.22265 q 0,22.94922 -12.98828,38.28125 -12.89062,15.33203 -35.05859,15.33203 -22.26563,0 -35.25391,-15.33203 -12.89062,-15.33203 -12.89062,-38.28125 z m 18.0664,2.24609 q 0,15.72266 7.42188,27.2461 7.51953,11.52343 22.65625,11.52343 14.74609,0 22.26562,-11.32812 7.51953,-11.42578 7.61719,-27.14844 v -2.53906 q 0,-15.52735 -7.51953,-27.14844 -7.51953,-11.71875 -22.55859,-11.71875 -14.94141,0 -22.46094,11.71875 -7.42188,11.62109 -7.42188,27.14844 z"
         id="path128941"
         style="fill:#f0ffff;fill-opacity:1;stroke:#003636;stroke-width:2;stroke-miterlimit:4;stroke-dasharray:none;stroke-opacity:1" />
      <path
         d="m -830.7074,402.02197 q -17.67578,0 -24.12109,15.23438 v 75 H -872.8949 V 386.59229 h 17.57813 l 0.39062,12.10937 q 8.69141,-14.0625 25.09766,-14.0625 5.07812,0 8.00781,1.36719 l -0.0976,16.79687 q -4.00391,-0.78125 -8.78907,-0.78125 z"
         id="path128938"
         style="fill:#f0ffff;fill-opacity:1;stroke:#003636;stroke-width:2;stroke-miterlimit:4;stroke-dasharray:none;stroke-opacity:1" />
      <path
         d="m -762.8363,399.87354 q -17.77344,0 -24.31641,14.9414 v 77.44141 h -18.16406 V 386.59229 h 17.1875 l 0.48828,11.52343 q 11.42578,-13.47656 31.25,-13.47656 10.15625,0 18.06641,4.10156 8.00781,4.00391 12.20703,12.89063 5.27343,-7.61719 13.67187,-12.30469 8.4961,-4.6875 19.92188,-4.6875 16.99218,0 26.17187,9.08203 9.27735,9.08203 9.27735,29.10156 v 69.4336 h -18.16407 v -69.62891 q 0,-13.28125 -6.15234,-17.96875 -6.05469,-4.78515 -16.40625,-4.78515 -10.9375,0 -17.1875,6.54296 -6.25,6.44532 -7.22656,15.72266 v 70.11719 h -18.06641 V 422.7251 q 0,-12.40235 -6.15234,-17.57813 -6.15235,-5.27343 -16.40625,-5.27343 z"
         id="path128935"
         style="fill:#f0ffff;fill-opacity:1;stroke:#003636;stroke-width:2;stroke-miterlimit:4;stroke-dasharray:none;stroke-opacity:1" />
    </g>
    <g
       aria-label="Cloud Computing"
       id="text119829"
       style="font-size:64px;line-height:1.25;fill:#003636;fill-opacity:1;stroke-width:0.75"
       transform="translate(34.5,24)">
      <path
         d="m -1112.8567,532.16528 h 6 q -0.6875,6.46875 -4.875,10.78125 -4.1875,4.3125 -12.375,4.3125 -7.9375,0 -12.8125,-5.65625 -4.8437,-5.6875 -4.9375,-15.09375 v -4.875 q 0,-9.5625 4.9063,-15.34375 4.9375,-5.78125 13.375,-5.78125 7.7187,0 11.875,4.25 4.1562,4.25 4.8437,10.96875 h -6 q -0.6875,-4.75 -3.0625,-7.5 -2.375,-2.78125 -7.6562,-2.78125 -6.0313,0 -9.1563,4.4375 -3.125,4.4375 -3.125,11.6875 v 4.59375 q 0,6.71875 2.8438,11.46875 2.8437,4.71875 8.9062,4.71875 5.75,0 8.0938,-2.6875 2.375,-2.6875 3.1562,-7.5 z"
         id="path128877"
         style="fill:#003636;fill-opacity:1" />
      <path
         d="m -1093.2629,498.63403 v 48 h -5.8125 v -48 z"
         id="path128879"
         style="fill:#003636;fill-opacity:1" />
      <path
         d="m -1085.5129,529.38403 q 0,-7.34375 4.125,-12.25 4.125,-4.9375 11.2187,-4.9375 7.0938,0 11.2188,4.84375 4.125,4.8125 4.2187,12.03125 v 1.03125 q 0,7.34375 -4.1562,12.25 -4.125,4.90625 -11.2188,4.90625 -7.125,0 -11.2812,-4.90625 -4.125,-4.90625 -4.125,-12.25 z m 5.7812,0.71875 q 0,5.03125 2.375,8.71875 2.4063,3.6875 7.25,3.6875 4.7188,0 7.125,-3.625 2.4063,-3.65625 2.4375,-8.6875 v -0.8125 q 0,-4.96875 -2.4062,-8.6875 -2.4063,-3.75 -7.2188,-3.75 -4.7812,0 -7.1875,3.75 -2.375,3.71875 -2.375,8.6875 z"
         id="path128881"
         style="fill:#003636;fill-opacity:1" />
      <path
         d="m -1026.5129,546.63403 -0.125,-3.34375 q -3.3125,3.96875 -9.875,3.96875 -4.9688,0 -8.0313,-2.9375 -3.0625,-2.9375 -3.0625,-9.6875 v -21.8125 h 5.7813 v 21.875 q 0,4.5625 1.9062,6.125 1.9375,1.53125 4.3125,1.53125 6.5313,0 8.8125,-4.90625 v -24.625 h 5.8125 v 33.8125 z"
         id="path128883"
         style="fill:#003636;fill-opacity:1" />
      <path
         d="m -990.38794,546.63403 -0.28125,-3.625 q -3.46875,4.25 -9.65621,4.25 -5.9375,0 -9.5938,-4.8125 -3.6562,-4.8125 -3.7187,-12.09375 v -0.90625 q 0,-7.75 3.6562,-12.5 3.6875,-4.75 9.7188,-4.75 5.96871,0 9.37496,4 v -17.5625 h 5.8125 v 48 z m -17.43746,-16.53125 q 0,5.03125 2.125,8.65625 2.125,3.59375 6.81246,3.59375 5.375,0 8,-4.90625 v -15.5625 q -2.59375,-4.8125 -7.9375,-4.8125 -4.71876,0 -6.87496,3.6875 -2.125,3.65625 -2.125,8.6875 z"
         id="path128885"
         style="fill:#003636;fill-opacity:1" />
      <path
         d="m -931.88794,532.16528 h 6 q -0.6875,6.46875 -4.875,10.78125 -4.1875,4.3125 -12.375,4.3125 -7.9375,0 -12.8125,-5.65625 -4.84375,-5.6875 -4.9375,-15.09375 v -4.875 q 0,-9.5625 4.90625,-15.34375 4.9375,-5.78125 13.375,-5.78125 7.71875,0 11.875,4.25 4.15625,4.25 4.84375,10.96875 h -6 q -0.6875,-4.75 -3.0625,-7.5 -2.375,-2.78125 -7.65625,-2.78125 -6.03125,0 -9.15625,4.4375 -3.125,4.4375 -3.125,11.6875 v 4.59375 q 0,6.71875 2.84375,11.46875 2.84375,4.71875 8.90625,4.71875 5.75,0 8.09375,-2.6875 2.375,-2.6875 3.15625,-7.5 z"
         id="path128887"
         style="fill:#003636;fill-opacity:1" />
      <path
         d="m -920.10669,529.38403 q 0,-7.34375 4.125,-12.25 4.125,-4.9375 11.21875,-4.9375 7.09375,0 11.21875,4.84375 4.125,4.8125 4.21875,12.03125 v 1.03125 q 0,7.34375 -4.15625,12.25 -4.125,4.90625 -11.21875,4.90625 -7.125,0 -11.28125,-4.90625 -4.125,-4.90625 -4.125,-12.25 z m 5.78125,0.71875 q 0,5.03125 2.375,8.71875 2.40625,3.6875 7.25,3.6875 4.71875,0 7.125,-3.625 2.40625,-3.65625 2.4375,-8.6875 v -0.8125 q 0,-4.96875 -2.40625,-8.6875 -2.40625,-3.75 -7.21875,-3.75 -4.78125,0 -7.1875,3.75 -2.375,3.71875 -2.375,8.6875 z"
         id="path128889"
         style="fill:#003636;fill-opacity:1" />
      <path
         d="m -868.54419,517.07153 q -5.6875,0 -7.78125,4.78125 v 24.78125 h -5.8125 v -33.8125 h 5.5 l 0.15625,3.6875 q 3.65625,-4.3125 10,-4.3125 3.25,0 5.78125,1.3125 2.5625,1.28125 3.90625,4.125 1.6875,-2.4375 4.375,-3.9375 2.71875,-1.5 6.375,-1.5 5.4375,0 8.375,2.90625 2.96875,2.90625 2.96875,9.3125 v 22.21875 h -5.8125 v -22.28125 q 0,-4.25 -1.96875,-5.75 -1.9375,-1.53125 -5.25,-1.53125 -3.5,0 -5.5,2.09375 -2,2.0625 -2.3125,5.03125 v 22.4375 h -5.78125 v -22.25 q 0,-3.96875 -1.96875,-5.625 -1.96875,-1.6875 -5.25,-1.6875 z"
         id="path128891"
         style="fill:#003636;fill-opacity:1" />
      <path
         d="m -810.51294,547.25903 q -6.09375,0 -9.65625,-3.90625 v 16.28125 h -5.8125 v -46.8125 h 5.3125 l 0.28125,3.71875 q 3.5625,-4.34375 9.78125,-4.34375 6.40625,0 9.8125,4.75 3.40625,4.75 3.40625,12.5 v 0.65625 q 0,7.40625 -3.4375,12.28125 -3.40625,4.875 -9.6875,4.875 z m -1.78125,-30.1875 q -5.25,0 -7.875,4.65625 v 16.1875 q 2.65625,4.59375 7.9375,4.59375 4.6875,0 6.84375,-3.6875 2.1875,-3.6875 2.1875,-8.71875 v -0.65625 q 0,-5.03125 -2.1875,-8.6875 -2.15625,-3.6875 -6.90625,-3.6875 z"
         id="path128893"
         style="fill:#003636;fill-opacity:1" />
      <path
         d="m -769.04419,546.63403 -0.125,-3.34375 q -3.3125,3.96875 -9.875,3.96875 -4.96875,0 -8.03125,-2.9375 -3.0625,-2.9375 -3.0625,-9.6875 v -21.8125 h 5.78125 v 21.875 q 0,4.5625 1.90625,6.125 1.9375,1.53125 4.3125,1.53125 6.53125,0 8.8125,-4.90625 v -24.625 h 5.8125 v 33.8125 z"
         id="path128895"
         style="fill:#003636;fill-opacity:1" />
      <path
         d="m -740.41919,546.63403 q -1.96875,0.625 -4.46875,0.625 -3.21875,0 -5.5,-1.96875 -2.28125,-1.96875 -2.28125,-7.0625 v -20.96875 h -6.1875 v -4.4375 h 6.1875 v -8.21875 h 5.78125 v 8.21875 h 6.3125 v 4.4375 h -6.3125 v 21 q 0,2.59375 1.125,3.3125 1.125,0.71875 2.59375,0.71875 1.09375,0 2.71875,-0.375 z"
         id="path128897"
         style="fill:#003636;fill-opacity:1" />
      <path
         d="m -733.76294,503.85278 q 0,-1.40625 0.84375,-2.375 0.875,-0.96875 2.5625,-0.96875 1.65625,0 2.53125,0.96875 0.90625,0.96875 0.90625,2.375 0,1.34375 -0.90625,2.3125 -0.875,0.9375 -2.53125,0.9375 -1.6875,0 -2.5625,-0.9375 -0.84375,-0.96875 -0.84375,-2.3125 z m 6.25,8.96875 v 33.8125 h -5.8125 v -33.8125 z"
         id="path128899"
         style="fill:#003636;fill-opacity:1" />
      <path
         d="m -704.20044,517.07153 q -2.78125,0 -4.90625,1.5 -2.125,1.5 -3.34375,3.90625 v 24.15625 h -5.78125 v -33.8125 h 5.46875 l 0.1875,4.21875 q 3.84375,-4.84375 10.09375,-4.84375 4.96875,0 7.875,2.78125 2.9375,2.78125 2.96875,9.34375 v 22.3125 h -5.8125 v -22.21875 q 0,-3.96875 -1.75,-5.65625 -1.71875,-1.6875 -5,-1.6875 z"
         id="path128901"
         style="fill:#003636;fill-opacity:1" />
      <path
         d="m -670.04419,559.97778 q -2.625,0 -6.4375,-1.28125 -3.8125,-1.28125 -6.09375,-4.59375 l 3.03125,-3.4375 q 3.75,4.5625 9.0625,4.5625 4.09375,0 6.53125,-2.3125 2.4375,-2.28125 2.4375,-6.71875 v -2.96875 q -3.4375,4.03125 -9.46875,4.03125 -6.09375,0 -9.6875,-4.875 -3.59375,-4.875 -3.59375,-12.28125 v -0.65625 q 0,-7.75 3.5625,-12.5 3.59375,-4.75 9.78125,-4.75 6.21875,0 9.65625,4.375 l 0.28125,-3.75 h 5.25 v 33.09375 q 0,6.71875 -4,10.375 -4,3.6875 -10.3125,3.6875 z m -8.4375,-29.875 q 0,5.03125 2.09375,8.65625 2.125,3.59375 6.8125,3.59375 5.5,0 8.0625,-5 v -15.40625 q -1.09375,-2.09375 -3.03125,-3.46875 -1.9375,-1.40625 -4.96875,-1.40625 -4.71875,0 -6.84375,3.6875 -2.125,3.65625 -2.125,8.6875 z"
         id="path128903"
         style="fill:#003636;fill-opacity:1" />
    </g>
  </g>
</svg>
