<?xml version="1.0" encoding="UTF-8" standalone="no"?>
<!-- Created with Inkscape (http://www.inkscape.org/) -->

<svg
   width="194.82706mm"
   height="98.461906mm"
   viewBox="0 0 194.82706 98.461906"
   version="1.1"
   id="svg5"
   inkscape:version="1.1.2 (0a00cf5339, 2022-02-04)"
   sodipodi:docname="value4value.svg"
   xmlns:inkscape="http://www.inkscape.org/namespaces/inkscape"
   xmlns:sodipodi="http://sodipodi.sourceforge.net/DTD/sodipodi-0.dtd"
   xmlns="http://www.w3.org/2000/svg"
   xmlns:svg="http://www.w3.org/2000/svg">
  <sodipodi:namedview
     id="namedview7"
     pagecolor="#ffffff"
     bordercolor="#666666"
     borderopacity="1.0"
     inkscape:pageshadow="2"
     inkscape:pageopacity="0.0"
     inkscape:pagecheckerboard="0"
     inkscape:document-units="mm"
     showgrid="false"
     inkscape:zoom="0.79370951"
     inkscape:cx="318.75642"
     inkscape:cy="245.68183"
     inkscape:window-width="1920"
     inkscape:window-height="1051"
     inkscape:window-x="1920"
     inkscape:window-y="0"
     inkscape:window-maximized="1"
     inkscape:current-layer="text1485-8" />
  <defs
     id="defs2" />
  <g
     inkscape:groupmode="layer"
     id="layer2"
     inkscape:label="Layer 2"
     transform="translate(25.002065,0.52916505)" />
  <g
     inkscape:label="Layer 1"
     inkscape:groupmode="layer"
     id="layer1"
     transform="translate(23.447867,-6.0911273)">
    <g
       aria-label="Value"
       id="text1485"
       style="font-size:50.8px;line-height:1.25;font-family:Poppins;-inkscape-font-specification:Poppins;fill:#93a5c5;stroke:#000000;stroke-width:0.529167">
      <path
         d="M 13.250897,8.5506923 0.60169746,44.212292 H -10.269502 l -12.6492,-35.6615997 h 9.2456 L -4.8339025,35.474692 4.0560974,8.5506923 Z"
         style="font-weight:bold"
         id="path53385" />
      <path
         d="m 15.130475,29.988292 q 0,-4.3688 1.6256,-7.6708 1.676399,-3.302 4.521199,-5.08 2.8448,-1.778 6.35,-1.778 2.9972,0 5.2324,1.2192 2.286,1.2192 3.5052,3.2004 v -4.0132 h 8.6868 v 28.3464 h -8.6868 v -4.0132 q -1.27,1.9812 -3.556,3.2004 -2.2352,1.2192 -5.2324,1.2192 -3.4544,0 -6.2992,-1.778 -2.8448,-1.8288 -4.521199,-5.1308 -1.6256,-3.3528 -1.6256,-7.7216 z m 21.234399,0.0508 q 0,-3.2512 -1.8288,-5.1308 -1.778,-1.8796 -4.3688,-1.8796 -2.5908,0 -4.4196,1.8796 -1.778,1.8288 -1.778,5.08 0,3.2512 1.778,5.1816 1.8288,1.8796 4.4196,1.8796 2.5908,0 4.3688,-1.8796 1.8288,-1.8796 1.8288,-5.1308 z"
         style="font-weight:bold"
         id="path53387" />
      <path
         d="M 60.037722,6.6202923 V 44.212292 H 51.350923 V 6.6202923 Z"
         style="font-weight:bold"
         id="path53389" />
      <path
         d="m 94.327722,15.865892 v 28.3464 h -8.6868 v -3.8608 q -1.3208,1.8796 -3.6068,3.048 -2.2352,1.1176 -4.9784,1.1176 -3.2512,0 -5.7404,-1.4224 -2.489199,-1.4732 -3.860799,-4.2164 -1.3716,-2.7432 -1.3716,-6.4516 v -16.5608 h 8.635999 v 15.3924 q 0,2.8448 1.4732,4.4196 1.4732,1.5748 3.9624,1.5748 2.54,0 4.0132,-1.5748 1.4732,-1.5748 1.4732,-4.4196 v -15.3924 z"
         style="font-weight:bold"
         id="path53391" />
      <path
         d="m 127.29691,29.581892 q 0,1.2192 -0.1524,2.54 h -19.6596 q 0.2032,2.6416 1.6764,4.064 1.524,1.3716 3.7084,1.3716 3.2512,0 4.5212,-2.7432 h 9.2456 q -0.7112,2.794 -2.5908,5.0292 -1.8288,2.2352 -4.6228,3.5052 -2.794,1.27 -6.2484,1.27 -4.1656,0 -7.4168,-1.778 -3.2512,-1.778 -5.08,-5.08 -1.828798,-3.302 -1.828798,-7.7216 0,-4.4196 1.777998,-7.7216 1.8288,-3.302 5.08,-5.08 3.2512,-1.778 7.4676,-1.778 4.1148,0 7.3152,1.7272 3.2004,1.7272 4.9784,4.9276 1.8288,3.2004 1.8288,7.4676 z m -8.89,-2.286 q 0,-2.2352 -1.524,-3.556 -1.524,-1.3208 -3.81,-1.3208 -2.1844,0 -3.7084,1.27 -1.4732,1.27 -1.8288,3.6068 z"
         style="font-weight:bold"
         id="path53393" />
    </g>
    <g
       aria-label="Value"
       id="text1485-8"
       style="font-size:50.8px;line-height:1.25;font-family:Poppins;-inkscape-font-specification:Poppins;fill:#93a5c5;stroke:#000000;stroke-width:0.529167">
      <path
         d="m 56.804007,67.95587 -12.649199,35.6616 h -10.8712 l -12.6492,-35.6616 h 9.2456 l 8.8392,26.924 8.89,-26.924 z"
         style="font-weight:bold"
         id="path53435" />
      <path
         d="m 58.683585,89.39347 q 0,-4.3688 1.6256,-7.6708 1.6764,-3.302 4.5212,-5.08 2.8448,-1.778 6.349999,-1.778 2.9972,0 5.2324,1.2192 2.286,1.2192 3.5052,3.2004 v -4.0132 h 8.6868 v 28.3464 h -8.6868 v -4.0132 q -1.27,1.9812 -3.556,3.2004 -2.2352,1.2192 -5.2324,1.2192 -3.454399,0 -6.299199,-1.778 -2.8448,-1.8288 -4.5212,-5.1308 -1.6256,-3.3528 -1.6256,-7.7216 z m 21.234399,0.0508 q 0,-3.2512 -1.8288,-5.1308 -1.778,-1.8796 -4.3688,-1.8796 -2.5908,0 -4.419599,1.8796 -1.778,1.8288 -1.778,5.08 0,3.2512 1.778,5.1816 1.828799,1.8796 4.419599,1.8796 2.5908,0 4.3688,-1.8796 1.8288,-1.8796 1.8288,-5.1308 z"
         style="font-weight:bold"
         id="path53437" />
      <path
         d="m 103.59083,66.02547 v 37.592 h -8.686797 v -37.592 z"
         style="font-weight:bold"
         id="path53439" />
      <path
         d="m 137.88083,75.27107 v 28.3464 h -8.6868 v -3.8608 q -1.3208,1.8796 -3.6068,3.048 -2.2352,1.1176 -4.9784,1.1176 -3.2512,0 -5.7404,-1.4224 -2.4892,-1.4732 -3.8608,-4.2164 -1.3716,-2.7432 -1.3716,-6.4516 v -16.5608 h 8.636 v 15.3924 q 0,2.8448 1.4732,4.4196 1.4732,1.5748 3.9624,1.5748 2.54,0 4.0132,-1.5748 1.4732,-1.5748 1.4732,-4.4196 v -15.3924 z"
         style="font-weight:bold"
         id="path53441" />
      <path
         d="m 170.85002,88.98707 q 0,1.2192 -0.1524,2.54 h -19.6596 q 0.2032,2.6416 1.6764,4.064 1.524,1.3716 3.7084,1.3716 3.2512,0 4.5212,-2.7432 h 9.2456 q -0.7112,2.794 -2.5908,5.0292 -1.8288,2.2352 -4.6228,3.5052 -2.794,1.27 -6.2484,1.27 -4.1656,0 -7.4168,-1.778 -3.2512,-1.778 -5.08,-5.08 -1.8288,-3.302 -1.8288,-7.7216 0,-4.4196 1.778,-7.7216 1.8288,-3.302 5.08,-5.08 3.2512,-1.778 7.4676,-1.778 4.1148,0 7.3152,1.7272 3.2004,1.7272 4.9784,4.9276 1.8288,3.2004 1.8288,7.4676 z m -8.89,-2.286 q 0,-2.2352 -1.524,-3.556 -1.524,-1.3208 -3.81,-1.3208 -2.1844,0 -3.7084,1.27 -1.4732,1.27 -1.8288,3.6068 z"
         style="font-weight:bold"
         id="path53443" />
    </g>
    <g
       aria-label="4"
       id="text22381"
       style="font-size:35.2778px;line-height:1.25;fill:#93a5c5;stroke:#000000;stroke-width:0.529167">
      <path
         d="M 73.134595,63.543272 83.590467,47.024028 h 5.029843 v 15.640744 h 2.842205 v 4.013539 H 88.62031 V 72.10434 H 83.642143 V 66.678311 H 73.358526 Z m 4.943715,-0.8785 h 5.563833 v -8.905578 l -0.344509,0.602892 z"
         style="font-weight:bold"
         id="path53414" />
    </g>
  </g>
</svg>
